# xmcd
#
# Track frame offsets:
#	150
#	29186
#	52291
#	87575
#	116469
#	143721
#	174765
#	232272
#	258969
#
# Disc length: 4014 seconds
#
# Revision: 1
# Processed by: cddbd v1.5.2PL0 Copyright (c) Steve Scherf et al.
# Submitted via: CDmax 2.0
#
DISCID=810fac09
DTITLE=Eric Clapton - Four Pieces Divers Concerts (disc2)
DYEAR=1986
DGENRE=Blues
TTITLE0=Holy Mother
TTITLE1=Behind the Mask
TTITLE2=Badge
TTITLE3=Let It Rain
TTITLE4=In the Air Tonight
TTITLE5=Cocaine
TTITLE6=Layla
TTITLE7=Sunshine of Your Love
TTITLE8=Further on Up the Road
EXTD=Eric Clapton\tguitar, vocals\nPhil Collins\tdrums, vocals\nNathan East\t
EXTD=bass\nGreg Phillinganes\tkeyboards\n\nRecorded live at National Exhibiti
EXTD=on Centre, Birmingham, UK on July 15th, 1986
EXTT0=
EXTT1=
EXTT2=
EXTT3=
EXTT4=
EXTT5=
EXTT6=
EXTT7=
EXTT8=
PLAYORDER=
